<mxfile host="app.diagrams.net" modified="2023-03-27T10:25:10.282Z" agent="Mozilla/5.0 (Windows NT 10.0; Win64; x64) AppleWebKit/537.36 (KHTML, like Gecko) Chrome/111.0.0.0 Safari/537.36" etag="2f87pw4Bm9x7bwflQVhK" version="21.1.1" type="github">
  <diagram id="C5RBs43oDa-KdzZeNtuy" name="Page-1">
    <mxGraphModel dx="989" dy="543" grid="1" gridSize="10" guides="1" tooltips="1" connect="1" arrows="1" fold="1" page="1" pageScale="1" pageWidth="827" pageHeight="1169" math="0" shadow="0">
      <root>
        <mxCell id="WIyWlLk6GJQsqaUBKTNV-0" />
        <mxCell id="WIyWlLk6GJQsqaUBKTNV-1" parent="WIyWlLk6GJQsqaUBKTNV-0" />
        <mxCell id="0X0OkWObve7CjvhDQ9vk-55" style="edgeStyle=orthogonalEdgeStyle;rounded=0;orthogonalLoop=1;jettySize=auto;html=1;" edge="1" parent="WIyWlLk6GJQsqaUBKTNV-1" source="WIyWlLk6GJQsqaUBKTNV-3" target="0X0OkWObve7CjvhDQ9vk-1">
          <mxGeometry relative="1" as="geometry" />
        </mxCell>
        <mxCell id="WIyWlLk6GJQsqaUBKTNV-3" value="Execute" style="rounded=1;whiteSpace=wrap;html=1;fontSize=12;glass=0;strokeWidth=1;shadow=0;" parent="WIyWlLk6GJQsqaUBKTNV-1" vertex="1">
          <mxGeometry x="160" y="140" width="120" height="40" as="geometry" />
        </mxCell>
        <mxCell id="0X0OkWObve7CjvhDQ9vk-54" style="edgeStyle=orthogonalEdgeStyle;rounded=0;orthogonalLoop=1;jettySize=auto;html=1;" edge="1" parent="WIyWlLk6GJQsqaUBKTNV-1" source="0X0OkWObve7CjvhDQ9vk-1" target="0X0OkWObve7CjvhDQ9vk-20">
          <mxGeometry relative="1" as="geometry" />
        </mxCell>
        <mxCell id="0X0OkWObve7CjvhDQ9vk-1" value="获取guild_id" style="rounded=1;whiteSpace=wrap;html=1;" vertex="1" parent="WIyWlLk6GJQsqaUBKTNV-1">
          <mxGeometry x="160" y="210" width="120" height="70" as="geometry" />
        </mxCell>
        <mxCell id="0X0OkWObve7CjvhDQ9vk-16" value="No" style="text;html=1;strokeColor=none;fillColor=none;align=center;verticalAlign=middle;whiteSpace=wrap;rounded=0;" vertex="1" parent="WIyWlLk6GJQsqaUBKTNV-1">
          <mxGeometry x="260" y="490" width="60" height="30" as="geometry" />
        </mxCell>
        <mxCell id="0X0OkWObve7CjvhDQ9vk-17" value="Yes" style="text;html=1;strokeColor=none;fillColor=none;align=center;verticalAlign=middle;whiteSpace=wrap;rounded=0;" vertex="1" parent="WIyWlLk6GJQsqaUBKTNV-1">
          <mxGeometry x="150" y="520" width="60" height="30" as="geometry" />
        </mxCell>
        <mxCell id="0X0OkWObve7CjvhDQ9vk-35" style="edgeStyle=orthogonalEdgeStyle;rounded=0;orthogonalLoop=1;jettySize=auto;html=1;entryX=0.5;entryY=1;entryDx=0;entryDy=0;" edge="1" parent="WIyWlLk6GJQsqaUBKTNV-1" source="0X0OkWObve7CjvhDQ9vk-19" target="0X0OkWObve7CjvhDQ9vk-25">
          <mxGeometry relative="1" as="geometry" />
        </mxCell>
        <mxCell id="0X0OkWObve7CjvhDQ9vk-19" value="创建countChannel" style="rounded=1;whiteSpace=wrap;html=1;" vertex="1" parent="WIyWlLk6GJQsqaUBKTNV-1">
          <mxGeometry x="370" y="490" width="120" height="60" as="geometry" />
        </mxCell>
        <mxCell id="0X0OkWObve7CjvhDQ9vk-45" style="edgeStyle=orthogonalEdgeStyle;rounded=0;orthogonalLoop=1;jettySize=auto;html=1;" edge="1" parent="WIyWlLk6GJQsqaUBKTNV-1" source="0X0OkWObve7CjvhDQ9vk-20" target="0X0OkWObve7CjvhDQ9vk-36">
          <mxGeometry relative="1" as="geometry" />
        </mxCell>
        <mxCell id="0X0OkWObve7CjvhDQ9vk-20" value="打开sqlite" style="shape=datastore;whiteSpace=wrap;html=1;" vertex="1" parent="WIyWlLk6GJQsqaUBKTNV-1">
          <mxGeometry x="160" y="300" width="120" height="70" as="geometry" />
        </mxCell>
        <mxCell id="0X0OkWObve7CjvhDQ9vk-53" style="edgeStyle=orthogonalEdgeStyle;rounded=0;orthogonalLoop=1;jettySize=auto;html=1;entryX=0.5;entryY=0;entryDx=0;entryDy=0;" edge="1" parent="WIyWlLk6GJQsqaUBKTNV-1" source="0X0OkWObve7CjvhDQ9vk-21" target="0X0OkWObve7CjvhDQ9vk-52">
          <mxGeometry relative="1" as="geometry" />
        </mxCell>
        <mxCell id="0X0OkWObve7CjvhDQ9vk-21" value="获取countChannel_id" style="rounded=1;whiteSpace=wrap;html=1;" vertex="1" parent="WIyWlLk6GJQsqaUBKTNV-1">
          <mxGeometry x="160" y="540" width="120" height="60" as="geometry" />
        </mxCell>
        <mxCell id="0X0OkWObve7CjvhDQ9vk-49" style="edgeStyle=orthogonalEdgeStyle;rounded=0;orthogonalLoop=1;jettySize=auto;html=1;entryX=1;entryY=0;entryDx=0;entryDy=0;" edge="1" parent="WIyWlLk6GJQsqaUBKTNV-1" source="0X0OkWObve7CjvhDQ9vk-25" target="0X0OkWObve7CjvhDQ9vk-36">
          <mxGeometry relative="1" as="geometry" />
        </mxCell>
        <mxCell id="0X0OkWObve7CjvhDQ9vk-25" value="储存countChannel_id进入sqlite" style="shape=datastore;whiteSpace=wrap;html=1;" vertex="1" parent="WIyWlLk6GJQsqaUBKTNV-1">
          <mxGeometry x="370" y="340" width="120" height="100" as="geometry" />
        </mxCell>
        <mxCell id="0X0OkWObve7CjvhDQ9vk-50" style="edgeStyle=orthogonalEdgeStyle;rounded=0;orthogonalLoop=1;jettySize=auto;html=1;entryX=0.5;entryY=0;entryDx=0;entryDy=0;" edge="1" parent="WIyWlLk6GJQsqaUBKTNV-1" source="0X0OkWObve7CjvhDQ9vk-36" target="0X0OkWObve7CjvhDQ9vk-21">
          <mxGeometry relative="1" as="geometry" />
        </mxCell>
        <mxCell id="0X0OkWObve7CjvhDQ9vk-51" style="edgeStyle=orthogonalEdgeStyle;rounded=0;orthogonalLoop=1;jettySize=auto;html=1;exitX=1;exitY=1;exitDx=0;exitDy=0;entryX=0;entryY=0.5;entryDx=0;entryDy=0;" edge="1" parent="WIyWlLk6GJQsqaUBKTNV-1" source="0X0OkWObve7CjvhDQ9vk-36" target="0X0OkWObve7CjvhDQ9vk-19">
          <mxGeometry relative="1" as="geometry" />
        </mxCell>
        <mxCell id="0X0OkWObve7CjvhDQ9vk-36" value="&#xa;&lt;span style=&quot;color: rgb(0, 0, 0); font-family: Helvetica; font-size: 12px; font-style: normal; font-variant-ligatures: normal; font-variant-caps: normal; font-weight: 400; letter-spacing: normal; orphans: 2; text-align: center; text-indent: 0px; text-transform: none; widows: 2; word-spacing: 0px; -webkit-text-stroke-width: 0.15px; background-color: rgb(251, 251, 251); text-decoration-thickness: initial; text-decoration-style: initial; text-decoration-color: initial; float: none; display: inline !important;&quot;&gt;查看此guild是否使用membercount&lt;/span&gt;&#xa;&#xa;" style="rhombus;whiteSpace=wrap;html=1;" vertex="1" parent="WIyWlLk6GJQsqaUBKTNV-1">
          <mxGeometry x="155" y="390" width="130" height="130" as="geometry" />
        </mxCell>
        <mxCell id="0X0OkWObve7CjvhDQ9vk-60" style="edgeStyle=orthogonalEdgeStyle;rounded=0;orthogonalLoop=1;jettySize=auto;html=1;entryX=0.5;entryY=0;entryDx=0;entryDy=0;" edge="1" parent="WIyWlLk6GJQsqaUBKTNV-1" source="0X0OkWObve7CjvhDQ9vk-52" target="0X0OkWObve7CjvhDQ9vk-56">
          <mxGeometry relative="1" as="geometry" />
        </mxCell>
        <mxCell id="0X0OkWObve7CjvhDQ9vk-64" style="edgeStyle=orthogonalEdgeStyle;rounded=0;orthogonalLoop=1;jettySize=auto;html=1;entryX=0;entryY=0.5;entryDx=0;entryDy=0;" edge="1" parent="WIyWlLk6GJQsqaUBKTNV-1" source="0X0OkWObve7CjvhDQ9vk-52" target="0X0OkWObve7CjvhDQ9vk-62">
          <mxGeometry relative="1" as="geometry" />
        </mxCell>
        <mxCell id="0X0OkWObve7CjvhDQ9vk-52" value="获取member_count" style="rounded=1;whiteSpace=wrap;html=1;" vertex="1" parent="WIyWlLk6GJQsqaUBKTNV-1">
          <mxGeometry x="160" y="620" width="120" height="70" as="geometry" />
        </mxCell>
        <mxCell id="0X0OkWObve7CjvhDQ9vk-66" style="edgeStyle=orthogonalEdgeStyle;rounded=0;orthogonalLoop=1;jettySize=auto;html=1;" edge="1" parent="WIyWlLk6GJQsqaUBKTNV-1" source="0X0OkWObve7CjvhDQ9vk-56" target="0X0OkWObve7CjvhDQ9vk-65">
          <mxGeometry relative="1" as="geometry" />
        </mxCell>
        <mxCell id="0X0OkWObve7CjvhDQ9vk-56" value="用新的member_count更新countChannel" style="rounded=1;whiteSpace=wrap;html=1;" vertex="1" parent="WIyWlLk6GJQsqaUBKTNV-1">
          <mxGeometry x="160" y="710" width="120" height="60" as="geometry" />
        </mxCell>
        <mxCell id="0X0OkWObve7CjvhDQ9vk-70" style="edgeStyle=orthogonalEdgeStyle;rounded=0;orthogonalLoop=1;jettySize=auto;html=1;entryX=1;entryY=0.5;entryDx=0;entryDy=0;" edge="1" parent="WIyWlLk6GJQsqaUBKTNV-1" source="0X0OkWObve7CjvhDQ9vk-62" target="0X0OkWObve7CjvhDQ9vk-65">
          <mxGeometry relative="1" as="geometry" />
        </mxCell>
        <mxCell id="0X0OkWObve7CjvhDQ9vk-62" value="储存该guild的member_count" style="shape=datastore;whiteSpace=wrap;html=1;" vertex="1" parent="WIyWlLk6GJQsqaUBKTNV-1">
          <mxGeometry x="370" y="600" width="109" height="110" as="geometry" />
        </mxCell>
        <mxCell id="0X0OkWObve7CjvhDQ9vk-65" value="结束" style="shape=ext;double=1;rounded=1;whiteSpace=wrap;html=1;" vertex="1" parent="WIyWlLk6GJQsqaUBKTNV-1">
          <mxGeometry x="160" y="800" width="120" height="80" as="geometry" />
        </mxCell>
      </root>
    </mxGraphModel>
  </diagram>
</mxfile>
